<svg width="81" height="81" viewBox="0 0 81 81" fill="none" xmlns="http://www.w3.org/2000/svg">
<circle cx="40.5" cy="40.5" r="39.5" fill="white" stroke="#2C2C2C" stroke-width="2"/>
<path d="M26.0087 62V18.3636H52.3439V23.0511H31.2928V36.6875H42.3723C45.4973 36.6875 48.1323 37.1989 50.2772 38.2216C52.4363 39.2443 54.0698 40.6861 55.1777 42.5469C56.2999 44.4077 56.861 46.6023 56.861 49.1307C56.861 51.6591 56.2999 53.8892 55.1777 55.821C54.0698 57.7528 52.4363 59.2656 50.2772 60.3594C48.1323 61.4531 45.4973 62 42.3723 62H26.0087ZM31.2928 57.3977H42.3723C44.361 57.3977 46.0442 57 47.4221 56.2045C48.8141 55.3949 49.8652 54.358 50.5755 53.0938C51.2999 51.8153 51.6621 50.4659 51.6621 49.0455C51.6621 46.9574 50.8596 45.1605 49.2544 43.6548C47.6493 42.1349 45.3553 41.375 42.3723 41.375H31.2928V57.3977Z" fill="#2C2C2C"/>
</svg>
