<svg width="81" height="81" viewBox="0 0 81 81" fill="none" xmlns="http://www.w3.org/2000/svg">
<circle cx="40.5" cy="40.5" r="39.5" fill="#F5F1E8" stroke="#2C2C2C" stroke-width="2"/>
<path d="M55.5 57.375V53.625C55.5 51.6359 54.7098 49.7282 53.3033 48.3217C51.8968 46.9152 49.9891 46.125 48 46.125H33C31.0109 46.125 29.1032 46.9152 27.6967 48.3217C26.2902 49.7282 25.5 51.6359 25.5 53.625V57.375M48 31.125C48 35.2671 44.6421 38.625 40.5 38.625C36.3579 38.625 33 35.2671 33 31.125C33 26.9829 36.3579 23.625 40.5 23.625C44.6421 23.625 48 26.9829 48 31.125Z" stroke="#2C2C2C" stroke-width="2.5" stroke-linecap="round" stroke-linejoin="round"/>
</svg>
